<svg width="134" height="52" viewBox="0 0 134 52" fill="none" xmlns="http://www.w3.org/2000/svg">
<path d="M23.7607 17V5.36364H27.6925C28.6054 5.36364 29.3516 5.52841 29.9311 5.85795C30.5144 6.18371 30.9463 6.625 31.2266 7.18182C31.5069 7.73864 31.647 8.35985 31.647 9.04545C31.647 9.73106 31.5069 10.3542 31.2266 10.9148C30.95 11.4754 30.522 11.9223 29.9425 12.2557C29.3629 12.5852 28.6205 12.75 27.7152 12.75H24.897V11.5H27.6697C28.2947 11.5 28.7966 11.392 29.1754 11.1761C29.5542 10.9602 29.8288 10.6686 29.9993 10.3011C30.1735 9.92992 30.2607 9.51136 30.2607 9.04545C30.2607 8.57955 30.1735 8.16288 29.9993 7.79545C29.8288 7.42803 29.5523 7.14015 29.1697 6.93182C28.7872 6.7197 28.2796 6.61364 27.647 6.61364H25.1697V17H23.7607ZM37.1868 17.1818C36.3989 17.1818 35.7076 16.9943 35.1129 16.6193C34.522 16.2443 34.0599 15.7197 33.7266 15.0455C33.397 14.3712 33.2322 13.5833 33.2322 12.6818C33.2322 11.7727 33.397 10.9792 33.7266 10.3011C34.0599 9.62311 34.522 9.09659 35.1129 8.72159C35.7076 8.34659 36.3989 8.15909 37.1868 8.15909C37.9747 8.15909 38.6641 8.34659 39.255 8.72159C39.8497 9.09659 40.3118 9.62311 40.6413 10.3011C40.9747 10.9792 41.1413 11.7727 41.1413 12.6818C41.1413 13.5833 40.9747 14.3712 40.6413 15.0455C40.3118 15.7197 39.8497 16.2443 39.255 16.6193C38.6641 16.9943 37.9747 17.1818 37.1868 17.1818ZM37.1868 15.9773C37.7853 15.9773 38.2777 15.8239 38.6641 15.517C39.0504 15.2102 39.3364 14.8068 39.522 14.3068C39.7076 13.8068 39.8004 13.2652 39.8004 12.6818C39.8004 12.0985 39.7076 11.5549 39.522 11.0511C39.3364 10.5473 39.0504 10.1402 38.6641 9.82955C38.2777 9.51894 37.7853 9.36364 37.1868 9.36364C36.5883 9.36364 36.0959 9.51894 35.7095 9.82955C35.3232 10.1402 35.0372 10.5473 34.8516 11.0511C34.666 11.5549 34.5732 12.0985 34.5732 12.6818C34.5732 13.2652 34.666 13.8068 34.8516 14.3068C35.0372 14.8068 35.3232 15.2102 35.7095 15.517C36.0959 15.8239 36.5883 15.9773 37.1868 15.9773ZM44.8686 17L42.2095 8.27273H43.6186L45.505 14.9545H45.5959L47.4595 8.27273H48.8913L50.7322 14.9318H50.8232L52.7095 8.27273H54.1186L51.4595 17H50.1413L48.2322 10.2955H48.0959L46.1868 17H44.8686ZM59.2536 17.1818C58.4126 17.1818 57.6873 16.9962 57.0774 16.625C56.4714 16.25 56.0036 15.7273 55.674 15.0568C55.3482 14.3826 55.1854 13.5985 55.1854 12.7045C55.1854 11.8106 55.3482 11.0227 55.674 10.3409C56.0036 9.6553 56.4619 9.12121 57.049 8.73864C57.6399 8.35227 58.3293 8.15909 59.1172 8.15909C59.5717 8.15909 60.0206 8.23485 60.4638 8.38636C60.907 8.53788 61.3104 8.78409 61.674 9.125C62.0376 9.46212 62.3274 9.90909 62.5433 10.4659C62.7592 11.0227 62.8672 11.7083 62.8672 12.5227V13.0909H56.1399V11.9318H61.5036C61.5036 11.4394 61.4051 11 61.2081 10.6136C61.0149 10.2273 60.7384 9.92235 60.3786 9.69886C60.0225 9.47538 59.602 9.36364 59.1172 9.36364C58.5831 9.36364 58.121 9.49621 57.7308 9.76136C57.3445 10.0227 57.0471 10.3636 56.8388 10.7841C56.6304 11.2045 56.5263 11.6553 56.5263 12.1364V12.9091C56.5263 13.5682 56.6399 14.1269 56.8672 14.5852C57.0982 15.0398 57.4183 15.3864 57.8274 15.625C58.2365 15.8598 58.7119 15.9773 59.2536 15.9773C59.6058 15.9773 59.924 15.928 60.2081 15.8295C60.496 15.7273 60.7441 15.5758 60.9524 15.375C61.1607 15.1705 61.3217 14.9167 61.4354 14.6136L62.7308 14.9773C62.5945 15.4167 62.3653 15.803 62.0433 16.1364C61.7214 16.4659 61.3236 16.7235 60.8501 16.9091C60.3767 17.0909 59.8445 17.1818 59.2536 17.1818ZM64.907 17V8.27273H66.2024V9.59091H66.2933C66.4524 9.15909 66.7403 8.80871 67.157 8.53977C67.5736 8.27083 68.0433 8.13636 68.5661 8.13636C68.6645 8.13636 68.7876 8.13826 68.9354 8.14205C69.0831 8.14583 69.1948 8.15152 69.2706 8.15909V9.52273C69.2251 9.51136 69.121 9.49432 68.9581 9.47159C68.799 9.44508 68.6304 9.43182 68.4524 9.43182C68.0282 9.43182 67.6494 9.52083 67.3161 9.69886C66.9865 9.87311 66.7251 10.1155 66.532 10.4261C66.3426 10.733 66.2479 11.0833 66.2479 11.4773V17H64.907ZM74.2536 17.1818C73.4126 17.1818 72.6873 16.9962 72.0774 16.625C71.4714 16.25 71.0036 15.7273 70.674 15.0568C70.3482 14.3826 70.1854 13.5985 70.1854 12.7045C70.1854 11.8106 70.3482 11.0227 70.674 10.3409C71.0036 9.6553 71.4619 9.12121 72.049 8.73864C72.6399 8.35227 73.3293 8.15909 74.1172 8.15909C74.5717 8.15909 75.0206 8.23485 75.4638 8.38636C75.907 8.53788 76.3104 8.78409 76.674 9.125C77.0376 9.46212 77.3274 9.90909 77.5433 10.4659C77.7592 11.0227 77.8672 11.7083 77.8672 12.5227V13.0909H71.1399V11.9318H76.5036C76.5036 11.4394 76.4051 11 76.2081 10.6136C76.0149 10.2273 75.7384 9.92235 75.3786 9.69886C75.0225 9.47538 74.602 9.36364 74.1172 9.36364C73.5831 9.36364 73.121 9.49621 72.7308 9.76136C72.3445 10.0227 72.0471 10.3636 71.8388 10.7841C71.6304 11.2045 71.5263 11.6553 71.5263 12.1364V12.9091C71.5263 13.5682 71.6399 14.1269 71.8672 14.5852C72.0982 15.0398 72.4183 15.3864 72.8274 15.625C73.2365 15.8598 73.7119 15.9773 74.2536 15.9773C74.6058 15.9773 74.924 15.928 75.2081 15.8295C75.496 15.7273 75.7441 15.5758 75.9524 15.375C76.1607 15.1705 76.3217 14.9167 76.4354 14.6136L77.7308 14.9773C77.5945 15.4167 77.3653 15.803 77.0433 16.1364C76.7214 16.4659 76.3236 16.7235 75.8501 16.9091C75.3767 17.0909 74.8445 17.1818 74.2536 17.1818ZM83.2024 17.1818C82.4751 17.1818 81.8331 16.9981 81.2763 16.6307C80.7195 16.2595 80.2839 15.7367 79.9695 15.0625C79.6551 14.3845 79.4979 13.5833 79.4979 12.6591C79.4979 11.7424 79.6551 10.947 79.9695 10.2727C80.2839 9.59848 80.7214 9.07765 81.282 8.71023C81.8426 8.3428 82.4903 8.15909 83.2251 8.15909C83.7933 8.15909 84.2422 8.25379 84.5717 8.44318C84.9051 8.62879 85.1589 8.84091 85.3331 9.07955C85.5111 9.31439 85.6494 9.50758 85.7479 9.65909H85.8615V5.36364H87.2024V17H85.907V15.6591H85.7479C85.6494 15.8182 85.5092 16.0189 85.3274 16.2614C85.1456 16.5 84.8861 16.714 84.549 16.9034C84.2119 17.089 83.763 17.1818 83.2024 17.1818ZM83.3842 15.9773C83.9221 15.9773 84.3767 15.8371 84.7479 15.5568C85.1191 15.2727 85.4013 14.8807 85.5945 14.3807C85.7876 13.8769 85.8842 13.2955 85.8842 12.6364C85.8842 11.9848 85.7895 11.4148 85.6001 10.9261C85.4107 10.4337 85.1304 10.0511 84.7592 9.77841C84.388 9.50189 83.9297 9.36364 83.3842 9.36364C82.8161 9.36364 82.3426 9.50947 81.9638 9.80114C81.5888 10.089 81.3066 10.4811 81.1172 10.9773C80.9316 11.4697 80.8388 12.0227 80.8388 12.6364C80.8388 13.2576 80.9335 13.822 81.1229 14.3295C81.3161 14.8333 81.6001 15.2348 81.9751 15.5341C82.3539 15.8295 82.8236 15.9773 83.3842 15.9773ZM94.5263 17V5.36364H95.8672V9.65909H95.9808C96.0793 9.50758 96.2157 9.31439 96.3899 9.07955C96.5679 8.84091 96.8217 8.62879 97.1513 8.44318C97.4846 8.25379 97.9354 8.15909 98.5036 8.15909C99.2384 8.15909 99.8861 8.3428 100.447 8.71023C101.007 9.07765 101.445 9.59848 101.759 10.2727C102.074 10.947 102.231 11.7424 102.231 12.6591C102.231 13.5833 102.074 14.3845 101.759 15.0625C101.445 15.7367 101.009 16.2595 100.452 16.6307C99.8956 16.9981 99.2536 17.1818 98.5263 17.1818C97.9657 17.1818 97.5168 17.089 97.1797 16.9034C96.8426 16.714 96.5831 16.5 96.4013 16.2614C96.2195 16.0189 96.0793 15.8182 95.9808 15.6591H95.8217V17H94.5263ZM95.8445 12.6364C95.8445 13.2955 95.9411 13.8769 96.1342 14.3807C96.3274 14.8807 96.6096 15.2727 96.9808 15.5568C97.352 15.8371 97.8066 15.9773 98.3445 15.9773C98.9051 15.9773 99.3729 15.8295 99.7479 15.5341C100.127 15.2348 100.411 14.8333 100.6 14.3295C100.793 13.822 100.89 13.2576 100.89 12.6364C100.89 12.0227 100.795 11.4697 100.606 10.9773C100.42 10.4811 100.138 10.089 99.7592 9.80114C99.3842 9.50947 98.9126 9.36364 98.3445 9.36364C97.799 9.36364 97.3407 9.50189 96.9695 9.77841C96.5982 10.0511 96.3179 10.4337 96.1286 10.9261C95.9392 11.4148 95.8445 11.9848 95.8445 12.6364ZM104.833 20.2727C104.606 20.2727 104.403 20.2538 104.225 20.2159C104.047 20.1818 103.924 20.1477 103.856 20.1136L104.197 18.9318C104.522 19.0152 104.81 19.0455 105.06 19.0227C105.31 19 105.532 18.8883 105.725 18.6875C105.922 18.4905 106.102 18.1705 106.265 17.7273L106.515 17.0455L103.288 8.27273H104.742L107.151 15.2273H107.242L109.651 8.27273H111.106L107.401 18.2727C107.235 18.7235 107.028 19.0966 106.782 19.392C106.536 19.6913 106.25 19.9129 105.924 20.0568C105.602 20.2008 105.238 20.2727 104.833 20.2727Z" fill="white"/>
<path d="M21.0866 43.226L26.0001 51.8374H16.0748L11.1094 43.226H21.0866Z" fill="url(#paint0_linear_4_365)"/>
<path d="M25.9975 51.8386L30.9547 43.2273L21.032 26.0005H11.1094L25.9975 51.8386Z" fill="#FF414C"/>
<path d="M6.14879 34.6094H16.0715L6.15292 51.8362L1.1875 43.2249L6.14879 34.6094Z" fill="#FF414C"/>
<path d="M55.4427 34.2453L55.195 36.9068C54.1337 34.8406 51.6927 33.72 49.0747 33.72C44.1573 33.72 40.8672 37.257 40.8672 42.6849C40.8672 48.0779 43.8389 52 49.0394 52C51.8695 52 53.9568 50.6343 55.0535 48.8483L55.3365 51.5447H59.3695V34.2453H55.4427ZM54.9828 42.895C54.9828 46.0117 53.037 48.1479 50.0299 48.1479C47.0228 48.1479 45.1832 45.9767 45.1832 42.895C45.1832 39.8133 47.0582 37.6071 50.0653 37.6071C53.0724 37.6071 54.9828 39.7783 54.9828 42.895Z" fill="#DBDBDB"/>
<path d="M66.7131 51.5447V46.8872L69.2602 44.2608L73.8239 51.5447H78.7768L72.2673 41.1091L78.9183 34.2453H73.5055L66.7131 41.4943V26H62.4324V51.5447H66.7131Z" fill="#DBDBDB"/>
<path d="M93.2709 34.2453L93.0233 36.9068C91.9619 34.8406 89.5209 33.72 86.903 33.72C81.9855 33.72 78.6954 37.257 78.6954 42.6849C78.6954 48.0779 81.6671 52 86.8676 52C89.6978 52 91.785 50.6343 92.8817 48.8483L93.1648 51.5447H97.1978V34.2453H93.2709ZM92.811 42.895C92.811 46.0117 90.8652 48.1479 87.8582 48.1479C84.8511 48.1479 83.0115 45.9767 83.0115 42.895C83.0115 39.8133 84.8865 37.6071 87.8935 37.6071C90.9006 37.6071 92.811 39.7783 92.811 42.895Z" fill="#DBDBDB"/>
<path d="M99.3818 46.2919C99.3818 49.6887 102.142 52 106.493 52C110.809 52 113.815 49.8288 113.815 46.3269C113.815 43.6654 112.329 42.3347 109.394 41.6694L106.245 40.934C104.759 40.5838 103.98 39.9534 103.98 38.9729C103.98 37.6772 104.972 36.9068 106.67 36.9068C108.333 36.9068 109.322 37.8523 109.358 39.3231H113.463C113.426 35.9613 110.773 33.72 106.846 33.72C102.813 33.72 99.9125 35.7511 99.9125 39.148C99.9125 41.9145 101.433 43.3853 104.582 44.0857L107.73 44.8211C109.287 45.1713 109.747 45.8016 109.747 46.6771C109.747 47.9378 108.65 48.7432 106.634 48.7432C104.653 48.7432 103.521 47.7977 103.485 46.2919H99.3818Z" fill="#DBDBDB"/>
<path d="M120.536 51.5447V42.0896C120.536 39.4982 122.129 37.6071 124.853 37.6071C127.046 37.6071 128.496 39.0079 128.496 41.9145V51.5447H132.812V40.8989C132.812 36.4165 130.548 33.72 126.232 33.72C123.72 33.72 121.669 34.8056 120.572 36.4865V26H116.22V51.5447H120.536Z" fill="#DBDBDB"/>
<defs>
<linearGradient id="paint0_linear_4_365" x1="80.6097" y1="43.9769" x2="86.4871" y2="23.3278" gradientUnits="userSpaceOnUse">
<stop stop-color="#FF414C"/>
<stop offset="1" stop-color="#FF414C" stop-opacity="0"/>
</linearGradient>
</defs>
</svg>
