<svg width="769" height="176" viewBox="0 0 769 176" fill="none" xmlns="http://www.w3.org/2000/svg">
<path d="M0 88C0 39.3989 39.3989 0 88 0V0C136.601 0 176 39.3989 176 88V88C176 136.601 136.601 176 88 176V176C39.3989 176 0 136.601 0 88V88Z" fill="#FF1F52"/>
<g clip-path="url(#clip0_89_194)">
<path d="M71.9419 71.9394C72.235 71.9381 72.5281 71.9366 72.8302 71.9351C73.1522 71.9349 73.4741 71.9346 73.8059 71.9344C74.1481 71.9331 74.4904 71.9319 74.8326 71.9306C75.7626 71.9271 76.6926 71.9256 77.6226 71.9246C78.2036 71.9239 78.7847 71.9226 79.3656 71.9216C81.1835 71.9182 83.0015 71.9159 84.8192 71.9149C86.9178 71.9137 89.0162 71.9094 91.1149 71.9022C92.737 71.8967 94.3591 71.8942 95.9811 71.8939C96.95 71.8937 97.9189 71.8922 98.8877 71.8877C99.7989 71.8837 100.71 71.883 101.622 71.8852C102.115 71.8855 102.609 71.8822 103.102 71.8785C103.544 71.8807 103.544 71.8807 103.995 71.8827C104.25 71.8825 104.506 71.882 104.769 71.8817C105.791 72.0177 106.437 72.5257 107.259 73.1128C108.453 74.7182 108.274 76.8308 108.078 78.7298C107.866 80.05 107.528 80.7082 106.48 81.5339C105.242 82.2158 104.382 82.211 102.971 82.2046C102.91 85.1179 102.872 88.0309 102.861 90.945C102.856 92.2988 102.843 93.652 102.813 95.0056C102.611 103.751 102.611 103.751 106.693 111.241C107.6 112.386 108.329 113.642 109.084 114.891C109.391 115.383 109.7 115.876 110.009 116.367C111.014 117.975 112.006 119.591 112.998 121.206C114.135 123.059 115.279 124.907 116.444 126.743C116.805 127.314 117.167 127.886 117.527 128.458C117.831 128.938 118.136 129.418 118.442 129.897C118.895 130.61 119.345 131.324 119.794 132.039C120.054 132.452 120.316 132.862 120.579 133.272C122.065 135.652 123.13 138.008 123.057 140.856C123.054 141.048 123.051 141.24 123.047 141.437C122.937 144.625 121.443 147.261 119.15 149.433C117.093 151.176 114.87 151.935 112.192 151.917C111.976 151.918 111.761 151.92 111.539 151.922C110.822 151.926 110.106 151.924 109.389 151.923C108.873 151.925 108.357 151.927 107.84 151.93C106.442 151.935 105.044 151.936 103.646 151.936C102.477 151.935 101.307 151.938 100.138 151.94C97.3777 151.945 94.6176 151.945 91.8572 151.944C89.015 151.942 86.1728 151.948 83.3308 151.957C80.8859 151.965 78.4411 151.967 75.9964 151.966C74.5383 151.966 73.0803 151.967 71.6222 151.973C70.25 151.979 68.8779 151.978 67.5057 151.973C67.0041 151.973 66.5025 151.974 66.001 151.977C62.4348 152.001 59.4111 151.738 56.5604 149.326C53.9502 146.696 52.9803 143.775 52.9924 140.174C53.0821 135.517 56.442 131.563 58.8627 127.755C59.926 126.081 60.9667 124.394 62.0039 122.703C63.7591 119.844 65.5321 116.997 67.3136 114.154C67.8168 113.35 68.3188 112.545 68.8206 111.741C68.99 111.469 69.1593 111.198 69.3337 110.918C69.6574 110.399 69.9808 109.88 70.3041 109.361C70.4505 109.127 70.5968 108.892 70.7475 108.651C70.8753 108.446 71.003 108.241 71.1347 108.03C71.5321 107.405 71.5321 107.405 72.0475 106.764C72.6747 105.652 72.6737 104.817 72.6664 103.562C72.6703 103.215 72.6703 103.215 72.6742 102.861C72.6815 102.1 72.6819 101.338 72.6822 100.577C72.686 100.047 72.6902 99.5182 72.6947 98.9888C72.7056 97.5982 72.7106 96.208 72.7144 94.8172C72.7193 93.3972 72.7297 91.9772 72.7397 90.5572C72.7585 87.7729 72.7711 84.9889 72.7797 82.2046C72.6095 82.1916 72.4394 82.1786 72.264 82.1654C72.0402 82.1459 71.8164 82.1267 71.5857 82.107C71.2533 82.0798 71.2533 82.0798 70.9141 82.0521C70.0059 81.9119 69.472 81.5578 68.7875 80.957C67.6191 79.3454 67.6561 77.647 67.7894 75.7172C68.0753 74.2134 68.5643 73.2009 69.7855 72.2241C70.5692 71.9628 71.1192 71.9419 71.9419 71.9394ZM83.0097 82.2046C83.0127 83.4441 83.0155 84.6837 83.0185 85.9607C83.0197 86.7614 83.0209 87.5618 83.0219 88.3623C83.0234 89.6241 83.0252 90.8859 83.0284 92.1474C83.0499 100.166 83.0499 100.166 82.9152 104.086C82.9074 104.335 82.8999 104.585 82.892 104.843C82.7126 109.236 82.7126 109.236 81.5887 110.892C81.453 111.097 81.3173 111.303 81.1775 111.515C81.0308 111.729 80.8841 111.942 80.7329 112.162C80.4193 112.636 80.1059 113.11 79.7933 113.585C79.5452 113.958 79.5452 113.958 79.292 114.34C78.4444 115.635 77.633 116.952 76.8235 118.272C76.5559 118.708 76.2872 119.142 76.0184 119.577C75.856 119.841 75.6936 120.105 75.5263 120.377C75.3088 120.73 75.3088 120.73 75.0868 121.091C74.7549 121.56 74.7549 121.56 74.7758 121.877C83.4214 121.877 92.067 121.877 100.975 121.877C100.598 120.934 100.255 120.223 99.7221 119.382C99.5714 119.142 99.4207 118.903 99.2652 118.657C99.0229 118.275 99.0229 118.275 98.7759 117.885C98.6103 117.62 98.4448 117.356 98.2742 117.083C97.4568 115.778 96.6304 114.481 95.7818 113.196C95.6343 112.968 95.4869 112.741 95.3351 112.507C95.0602 112.084 94.781 111.663 94.4968 111.246C92.4959 108.135 92.9069 104.16 92.8869 100.601C92.8822 100.069 92.8774 99.5365 92.8722 99.004C92.8595 97.613 92.8495 96.2222 92.8403 94.8311C92.8303 93.4077 92.8176 91.9842 92.8051 90.5607C92.7809 87.7754 92.7602 84.9899 92.7407 82.2046C89.5295 82.2046 86.3183 82.2046 83.0097 82.2046ZM84.1208 126.568C83.3605 127.668 83.0409 128.503 83.2592 129.861C83.6263 130.951 84.0731 131.691 84.928 132.466C86.1361 133.036 87.2385 133.321 88.5526 132.948C89.7386 132.42 90.4297 131.806 90.9941 130.61C91.3285 129.432 91.3681 128.442 90.8851 127.304C90.2516 126.216 89.4145 125.581 88.2495 125.121C86.6109 124.768 85.1925 125.321 84.1208 126.568ZM70.9395 135.164C69.9258 136.494 69.4486 137.69 69.5672 139.374C69.8542 141.295 70.6627 142.414 72.1335 143.656C73.4088 144.5 74.6973 144.702 76.2007 144.485C77.7874 144.075 78.9599 143.43 79.8841 142.03C80.6626 140.631 81.0298 139.44 80.7641 137.846C80.2187 136.017 79.0674 134.585 77.4425 133.604C75.0213 132.947 72.7027 133.266 70.9395 135.164ZM95.2358 135.101C94.4449 136.083 94.3543 136.853 94.4873 138.095C94.902 139.008 95.3613 139.593 96.2339 140.092C97.2087 140.395 97.6691 140.361 98.6512 140.045C99.6402 139.504 99.6402 139.504 100.226 138.594C100.491 137.573 100.545 137.028 100.164 136.037C99.5786 135.117 99.2705 134.7 98.23 134.353C96.9854 134.26 96.2214 134.307 95.2358 135.101Z" fill="white"/>
<path d="M77.271 43.7795C78.648 44.8168 79.0709 46.2263 79.6568 47.8029C79.8414 48.2985 80.0288 48.793 80.2192 49.2864C80.3003 49.5044 80.3811 49.7225 80.4645 49.9473C81.0326 51.0262 81.9311 51.3733 83.0342 51.7855C83.2752 51.8786 83.5163 51.9719 83.7645 52.0679C84.27 52.2606 84.7763 52.4509 85.2831 52.6393C85.5238 52.7331 85.7646 52.8269 86.0126 52.9238C86.3422 53.048 86.3422 53.048 86.6783 53.1748C87.4012 53.5982 87.6504 54.0036 88 54.7582C88.0157 55.6469 88.0157 55.6469 87.7505 56.5048C86.3567 57.6296 84.6895 58.1493 83.0297 58.7723C82.8136 58.8554 82.5978 58.9385 82.3752 59.0241C82.1796 59.0974 81.984 59.1708 81.7824 59.2464C80.7038 59.7706 80.3849 60.4451 79.9854 61.5494C79.8911 61.8027 79.7965 62.0557 79.6992 62.3167C79.5048 62.8496 79.3112 63.3831 79.1184 63.917C79.0238 64.17 78.929 64.4233 78.8314 64.684C78.7473 64.9158 78.6632 65.1476 78.5767 65.3862C78.2268 66.0683 77.9317 66.354 77.271 66.7348C76.3855 66.8296 75.7838 66.8805 74.9967 66.4384C74.402 65.8667 74.3041 65.4431 74.1111 64.6451C73.2894 61.5639 73.2894 61.5639 71.2887 59.199C69.6533 58.3357 67.9337 57.7423 66.1564 57.2416C65.5439 57.0038 65.5439 57.0038 65.0448 56.2553C64.911 54.85 64.911 54.85 65.0448 54.2592C65.7291 53.466 66.3567 53.06 67.3236 52.6723C67.6869 52.5253 67.6869 52.5253 68.0575 52.3751C68.3087 52.2763 68.5599 52.1775 68.8187 52.0759C69.0718 51.9734 69.325 51.8706 69.5858 51.765C71.4558 51.0155 71.4558 51.0155 72.0312 51.0155C72.0936 50.8209 72.156 50.6262 72.2203 50.4256C72.6171 49.2642 73.0515 48.1202 73.4971 46.9764C73.5817 46.7514 73.6662 46.5265 73.7534 46.2947C73.838 46.0787 73.9226 45.8627 74.0098 45.6402C74.085 45.4446 74.1602 45.2489 74.2377 45.0474C74.9459 43.7732 75.8803 43.5844 77.271 43.7795Z" fill="white"/>
<path d="M85.8949 24.0525C86.1778 24.0576 86.4608 24.0628 86.7524 24.0681C86.8518 24.3028 86.9513 24.5376 87.0536 24.7796C87.1871 25.0934 87.3206 25.4072 87.4543 25.7211C87.5195 25.8751 87.5846 26.0292 87.6517 26.1879C87.8473 26.6472 88.0484 27.1042 88.2495 27.5612C88.3426 27.8266 88.4354 28.0919 88.5312 28.3653C89.2279 29.3994 90.1234 29.6218 91.2749 30.0096C91.6863 30.1563 92.0975 30.3035 92.5087 30.4511C92.6909 30.5134 92.873 30.5758 93.0606 30.64C93.4893 30.8049 93.4893 30.8049 93.7388 31.0544C93.749 31.6365 93.7493 32.2189 93.7388 32.801C93.3281 32.9883 92.9177 33.1754 92.507 33.3624C92.2782 33.4666 92.0494 33.5708 91.8138 33.6782C90.9942 34.0486 90.9942 34.0486 90.4358 34.2292C89.5597 34.5399 88.9289 34.7758 88.4022 35.5667C88.128 36.1916 87.9 36.8152 87.6881 37.4638C86.9309 39.6917 86.9309 39.6917 86.1327 40.1197C85.5049 40.0369 85.5049 40.0369 84.9787 39.6723C84.3901 38.882 84.0395 38.0511 83.6959 37.1363C83.629 36.9665 83.5622 36.7966 83.4933 36.6217C83.0098 35.3736 83.0098 35.3736 83.0098 34.7971C82.8765 34.7547 82.7435 34.7122 82.6063 34.6684C81.5314 34.3188 80.4647 33.9497 79.4073 33.5495C79.2019 33.4724 78.9963 33.3952 78.7845 33.3156C78.269 33.0505 78.269 33.0505 77.77 32.302C77.7388 31.6938 77.7388 31.6938 78.0195 31.0544C78.638 30.6141 79.315 30.3423 80.0156 30.0564C80.2367 29.9628 80.4575 29.8692 80.6853 29.7727C82.4124 29.0583 82.4124 29.0583 83.0098 29.0583C83.0522 28.9252 83.0946 28.792 83.1385 28.6548C84.6281 24.0747 84.6281 24.0747 85.8949 24.0525Z" fill="white"/>
<path d="M101.567 35.6704C102.222 35.7951 102.222 35.7951 102.721 36.3409C103.066 36.9077 103.266 37.4352 103.472 38.07C103.959 39.7093 103.959 39.7093 105.024 40.9881C105.661 41.3039 106.29 41.5535 106.963 41.7834C109.083 42.6027 109.083 42.6027 109.645 43.4053C109.708 44.0291 109.708 44.0291 109.469 44.5164C108.603 45.3845 107.425 45.6518 106.276 46.0261C105.221 46.4138 104.638 46.723 104.118 47.7464C103.978 48.0847 103.845 48.4258 103.719 48.7698C103.621 49.0084 103.522 49.2472 103.421 49.493C103.265 49.9089 103.109 50.3246 102.953 50.7405C102.721 51.265 102.721 51.265 102.222 51.764C101.63 51.8888 101.63 51.8888 100.975 51.764C99.9392 50.6315 99.5644 49.19 99.0886 47.7532C98.4172 46.3901 97.0149 46.0491 95.6725 45.4949C94.0198 44.8091 94.0198 44.8091 93.7388 44.5281C93.661 43.8107 93.661 43.8107 93.7388 43.031C94.4252 42.355 95.2042 42.093 96.1049 41.7861C97.9269 41.2136 97.9269 41.2136 99.1502 39.8497C99.2698 39.4997 99.3783 39.1456 99.4776 38.7893C99.6505 38.3408 99.8274 37.8937 100.008 37.4482C100.086 37.2404 100.164 37.0326 100.244 36.8185C100.561 36.1009 100.791 35.8339 101.567 35.6704Z" fill="white"/>
</g>
<path d="M265.402 88.836C268.815 88.836 271.247 89.1773 272.698 89.86C274.234 90.4573 275.002 91.6093 275.002 93.316C275.002 95.62 271.29 97.9667 263.866 100.356C264.037 106.841 264.122 113.071 264.122 119.044C264.122 124.932 263.653 129.369 262.714 132.356C261.775 135.257 260.282 136.708 258.234 136.708C256.186 136.708 254.565 135.684 253.37 133.636C252.261 131.503 251.322 128.047 250.554 123.268C249.871 118.489 249.146 112.175 248.378 104.324C239.674 106.287 233.402 107.865 229.562 109.06C222.906 127.492 218.469 136.708 216.25 136.708C214.458 136.708 212.069 135.513 209.082 133.124C206.181 130.735 204.73 128.26 204.73 125.7C204.73 124.249 206.394 119.727 209.722 112.132C208.271 111.193 206.991 109.871 205.882 108.164C204.858 106.372 204.346 104.665 204.346 103.044C204.346 100.228 208.57 97.54 217.018 94.98C217.701 93.2733 218.383 91.3533 219.066 89.22C219.834 87.0013 221.669 81.8813 224.57 73.86C227.557 65.8387 229.903 59.14 231.61 53.764C232.378 51.204 235.023 48.8147 239.546 46.596C244.154 44.3773 247.738 43.268 250.298 43.268C253.285 43.268 255.93 47.4067 258.234 55.684C260.623 63.9613 262.287 75.012 263.226 88.836H265.402ZM235.834 91.012C238.394 90.6707 242.106 90.244 246.97 89.732C246.714 87.2573 246.287 83.0333 245.69 77.06C245.178 71.0867 244.794 66.7773 244.538 64.132C243.087 68.9107 240.186 77.8707 235.834 91.012ZM302.123 35.076C304.171 35.076 306.816 36.9533 310.059 40.708C313.302 44.4627 314.923 48.0467 314.923 51.46C314.923 54.8733 314.411 60.9747 313.387 69.764C312.363 78.468 311.296 85.4227 310.187 90.628C303.104 121.519 298.155 136.964 295.339 136.964C293.462 136.964 291.115 135.471 288.299 132.484C285.568 129.412 284.203 126.895 284.203 124.932C284.203 124.761 285.355 120.324 287.659 111.62C289.963 102.916 292.267 91.7373 294.571 78.084C296.96 64.3453 298.155 51.2467 298.155 38.788C298.155 36.3133 299.478 35.076 302.123 35.076ZM318.075 116.868C318.075 110.895 319.952 104.324 323.707 97.156C327.462 89.988 332.368 83.844 338.427 78.724C344.571 73.604 350.587 71.044 356.475 71.044C359.462 71.044 362.534 73.0067 365.691 76.932C368.848 80.772 370.427 84.228 370.427 87.3C370.427 89.5187 369.403 90.628 367.355 90.628C366.331 90.628 364.923 90.1587 363.131 89.22C361.339 88.2813 359.504 87.812 357.627 87.812C355.75 87.812 353.062 89.4333 349.563 92.676C346.15 95.8333 343.078 99.6733 340.347 104.196C337.702 108.633 336.379 112.132 336.379 114.692C336.379 117.252 336.848 118.916 337.787 119.684C338.811 120.452 341.2 120.836 344.955 120.836C348.795 120.836 352.251 120.495 355.323 119.812C358.48 119.129 360.784 118.447 362.235 117.764C363.771 116.996 365.136 116.612 366.331 116.612C368.72 116.612 369.915 117.636 369.915 119.684C369.915 123.439 366.63 127.279 360.059 131.204C353.488 135.044 346.918 136.964 340.347 136.964C336.166 136.964 331.387 134.66 326.011 130.052C320.72 125.359 318.075 120.964 318.075 116.868ZM396.7 40.452C396.7 36.868 398.108 35.076 400.924 35.076C403.228 35.076 405.873 36.996 408.86 40.836C411.847 44.676 413.34 47.9613 413.34 50.692C413.34 53.4227 412.785 57.2627 411.676 62.212C410.567 67.1613 409.415 71.684 408.22 75.78C407.111 79.876 405.404 85.7213 403.1 93.316C400.796 100.825 399.217 106.073 398.364 109.06C403.911 97.796 409.756 88.6227 415.9 81.54C422.129 74.4573 427.335 70.916 431.516 70.916C434.161 70.916 437.191 73.2627 440.604 77.956C444.017 82.564 445.724 86.7453 445.724 90.5C445.724 94.1693 445.041 99.5453 443.676 106.628C442.311 113.711 439.921 120.537 436.508 127.108C433.095 133.679 429.596 136.964 426.012 136.964C423.196 136.964 421.788 134.959 421.788 130.948C421.788 128.047 422.641 123.311 424.348 116.74C426.823 106.927 428.06 100.953 428.06 98.82C428.06 96.6867 427.719 95.62 427.036 95.62C422.087 95.62 414.833 103.855 405.276 120.324C402.033 125.956 399.303 130.137 397.084 132.868C394.951 135.599 392.903 136.964 390.94 136.964C388.977 136.964 386.588 135.385 383.772 132.228C381.041 129.071 379.676 126.639 379.676 124.932C379.676 123.14 380.017 120.537 380.7 117.124C381.468 113.711 382.577 108.847 384.028 102.532C385.564 96.2173 388.039 84.7827 391.452 68.228C394.951 51.588 396.7 42.3293 396.7 40.452ZM510.169 94.852C510.169 99.0333 507.31 102.788 501.593 106.116C495.961 109.444 490.158 111.108 484.185 111.108C478.212 111.108 473.305 110.681 469.465 109.828C468.697 112.132 468.313 114.436 468.313 116.74C468.313 119.044 468.697 120.708 469.465 121.732C470.233 122.671 472.153 123.14 475.225 123.14C481.625 123.14 487.086 122.543 491.609 121.348C496.217 120.153 498.606 119.556 498.777 119.556C502.276 119.556 504.025 120.708 504.025 123.012C504.025 126.34 501.252 129.497 495.705 132.484C490.244 135.471 483.886 136.964 476.633 136.964C469.465 136.964 463.705 134.703 459.353 130.18C455.001 125.657 452.825 120.324 452.825 114.18C452.825 107.951 454.617 101.465 458.201 94.724C461.87 87.9827 466.436 82.3507 471.897 77.828C477.358 73.22 482.777 70.916 488.153 70.916C493.614 70.916 498.649 73.604 503.257 78.98C507.865 84.2707 510.169 89.5613 510.169 94.852ZM495.321 92.804C495.321 91.9507 494.425 90.7133 492.633 89.092C490.841 87.4707 489.134 86.66 487.513 86.66C485.977 86.66 483.972 87.812 481.497 90.116C479.022 92.3347 476.676 95.236 474.457 98.82C475.225 98.9053 476.334 98.948 477.785 98.948C489.476 98.948 495.321 96.9 495.321 92.804ZM601.469 70.916C604.797 70.916 607.57 73.1347 609.789 77.572C612.008 82.0093 613.117 86.0627 613.117 89.732C613.117 93.4013 612.392 98.8627 610.941 106.116C609.576 113.284 607.357 120.239 604.285 126.98C601.298 133.636 598.056 136.964 594.557 136.964C591.741 136.964 590.333 135.044 590.333 131.204C590.333 127.364 591.442 121.092 593.661 112.388C595.88 103.684 596.989 97.9667 596.989 95.236C596.989 92.5053 596.562 91.14 595.709 91.14C593.917 91.14 591.784 93.1027 589.309 97.028C586.834 100.953 583.848 106.201 580.349 112.772C576.936 119.343 574.802 123.567 573.949 125.444C573.096 127.321 572.37 128.815 571.773 129.924C571.261 131.033 570.664 132.185 569.981 133.38C567.25 137.903 563.624 137.903 559.101 133.38C556.797 131.076 555.645 128.985 555.645 127.108C555.645 126.767 556.328 123.524 557.693 117.38C559.144 111.151 559.869 104.068 559.869 96.132C559.869 92.804 559.485 91.14 558.717 91.14C557.693 91.14 556.498 92.164 555.133 94.212C553.768 96.26 551.677 99.972 548.861 105.348C546.045 110.724 543.613 115.161 541.565 118.66C534.397 130.863 528.936 136.964 525.181 136.964C523.304 136.964 520.957 135.385 518.141 132.228C515.41 129.071 514.045 126.681 514.045 125.06C514.045 123.353 514.984 119.343 516.861 113.028C518.824 106.628 520.061 99.844 520.573 92.676C521.17 85.508 521.682 79.9187 522.109 75.908C522.621 71.8973 523.645 69.892 525.181 69.892C528.424 69.892 531.538 71.2573 534.525 73.988C537.597 76.6333 539.133 79.0653 539.133 81.284C539.133 86.3187 537.298 95.108 533.629 107.652C539.602 93.4013 544.637 83.7587 548.733 78.724C553.085 73.5187 557.266 70.916 561.277 70.916C563.496 70.916 566.226 72.964 569.469 77.06C572.797 81.156 574.461 84.996 574.461 88.58C574.461 92.0787 574.418 95.1507 574.333 97.796C576.978 91.14 580.989 84.996 586.365 79.364C591.741 73.732 596.776 70.916 601.469 70.916ZM632.744 54.916C632.744 52.6973 633.725 50.436 635.688 48.132C637.736 45.7427 639.699 44.548 641.576 44.548C643.539 44.548 645.843 46.852 648.488 51.46C651.133 56.068 652.456 59.4387 652.456 61.572C652.456 63.62 651.773 65.1987 650.408 66.308C649.043 67.4173 647.635 67.972 646.184 67.972C643.709 67.972 640.851 66.3507 637.608 63.108C634.365 59.8653 632.744 57.1347 632.744 54.916ZM634.664 70.916C637.651 70.916 640.296 72.6227 642.6 76.036C644.989 79.4493 646.184 82.7347 646.184 85.892C646.184 87.5133 644.691 93.3587 641.704 103.428C638.803 113.412 635.901 122.884 633 131.844C631.976 135.172 629.885 136.836 626.728 136.836C624.851 136.836 623.187 136.153 621.736 134.788C620.371 133.337 619.688 131.503 619.688 129.284C619.688 126.98 620.755 121.348 622.888 112.388C625.107 103.343 626.771 95.6627 627.88 89.348C629.075 82.948 630.141 78.2973 631.08 75.396C632.104 72.4093 633.299 70.916 634.664 70.916ZM694.282 71.044C697.525 71.044 700.725 72.964 703.882 76.804C707.039 80.644 708.618 84.1 708.618 87.172C708.618 89.22 707.722 90.244 705.93 90.244C704.906 90.244 703.413 89.86 701.45 89.092C699.487 88.2387 697.482 87.812 695.434 87.812C693.471 87.812 690.527 88.4947 686.602 89.86C682.762 91.2253 680.842 93.0173 680.842 95.236C680.842 96.0893 681.994 97.3267 684.298 98.948C686.602 100.569 689.119 102.233 691.85 103.94C694.581 105.647 697.098 108.036 699.402 111.108C701.706 114.095 702.858 117.38 702.858 120.964C702.858 124.463 700.255 128.004 695.05 131.588C689.93 135.172 683.871 136.964 676.874 136.964C669.962 136.964 664.031 135.385 659.082 132.228C654.133 129.071 651.658 125.828 651.658 122.5C651.658 119.172 653.023 117.508 655.754 117.508C656.863 117.508 658.186 117.935 659.722 118.788C663.989 121.263 669.279 122.5 675.594 122.5C681.994 122.5 685.194 121.647 685.194 119.94C685.194 118.233 683.957 116.356 681.482 114.308C679.093 112.175 676.447 110.212 673.546 108.42C670.73 106.628 668.085 104.452 665.61 101.892C663.221 99.2467 662.026 96.6867 662.026 94.212C662.026 89.604 666.207 84.612 674.57 79.236C682.933 73.7747 689.503 71.044 694.282 71.044ZM746.352 86.148C745.669 88.452 744.645 91.6947 743.28 95.876C742 99.972 740.379 105.135 738.416 111.364C736.539 117.593 735.6 120.921 735.6 121.348C735.6 121.689 736.283 121.86 737.648 121.86C739.099 121.86 742.469 120.921 747.76 119.044C753.051 117.081 756.165 116.1 757.104 116.1C759.237 116.1 760.304 117.551 760.304 120.452C760.304 123.353 757.445 126.852 751.728 130.948C746.011 134.959 740.037 136.964 733.808 136.964C731.077 136.964 727.835 135.471 724.08 132.484C720.325 129.497 718.448 126.468 718.448 123.396C718.448 120.836 719.728 115.46 722.288 107.268C724.933 98.9907 726.725 93.316 727.664 90.244C724.336 91.1827 721.819 91.652 720.112 91.652C718.405 91.652 716.613 90.5 714.736 88.196C712.859 85.8067 711.92 83.5453 711.92 81.412C711.92 78.6813 718.533 76.3773 731.76 74.5C733.381 66.564 734.192 59.6947 734.192 53.892C734.192 51.332 735.472 50.052 738.032 50.052C740.251 50.052 743.067 51.4173 746.48 54.148C749.979 56.7933 751.728 59.4387 751.728 62.084C751.728 64.644 751.173 68.2707 750.064 72.964C754.16 72.7933 757.275 72.708 759.408 72.708C765.808 72.708 769.008 74.1587 769.008 77.06C769.008 78.9373 767.131 80.5587 763.376 81.924C759.707 83.204 754.032 84.612 746.352 86.148Z" fill="white"/>
<defs>
<clipPath id="clip0_89_194">
<rect width="70.1131" height="128" fill="white" transform="translate(52.9435 24)"/>
</clipPath>
</defs>
</svg>
