<svg width="176" height="176" viewBox="0 0 176 176" fill="none" xmlns="http://www.w3.org/2000/svg">
<path d="M0 88C0 39.3989 39.3989 0 88 0V0C136.601 0 176 39.3989 176 88V88C176 136.601 136.601 176 88 176V176C39.3989 176 0 136.601 0 88V88Z" fill="#FF1F52"/>
<g clip-path="url(#clip0_88_192)">
<path d="M71.9419 71.9394C72.235 71.9381 72.5281 71.9366 72.8302 71.9351C73.1522 71.9349 73.4741 71.9346 73.8059 71.9344C74.1481 71.9331 74.4904 71.9319 74.8326 71.9306C75.7626 71.9271 76.6926 71.9256 77.6226 71.9246C78.2036 71.9239 78.7847 71.9226 79.3656 71.9216C81.1835 71.9182 83.0015 71.9159 84.8192 71.9149C86.9178 71.9137 89.0162 71.9094 91.1149 71.9022C92.737 71.8967 94.3591 71.8942 95.9811 71.8939C96.95 71.8937 97.9189 71.8922 98.8877 71.8877C99.7989 71.8837 100.71 71.883 101.622 71.8852C102.115 71.8855 102.609 71.8822 103.102 71.8785C103.544 71.8807 103.544 71.8807 103.995 71.8827C104.25 71.8825 104.506 71.882 104.769 71.8817C105.791 72.0177 106.437 72.5257 107.259 73.1128C108.453 74.7182 108.274 76.8308 108.078 78.7298C107.866 80.05 107.528 80.7082 106.48 81.5339C105.242 82.2158 104.382 82.211 102.971 82.2046C102.91 85.1179 102.872 88.0309 102.861 90.945C102.856 92.2988 102.843 93.652 102.813 95.0056C102.611 103.751 102.611 103.751 106.693 111.241C107.6 112.386 108.329 113.642 109.084 114.891C109.391 115.383 109.7 115.876 110.009 116.367C111.014 117.975 112.006 119.591 112.998 121.206C114.135 123.059 115.279 124.907 116.444 126.743C116.805 127.314 117.167 127.886 117.527 128.458C117.831 128.938 118.136 129.418 118.442 129.897C118.895 130.61 119.345 131.324 119.794 132.039C120.054 132.452 120.316 132.862 120.579 133.272C122.065 135.652 123.13 138.008 123.057 140.856C123.054 141.048 123.051 141.24 123.047 141.437C122.937 144.625 121.443 147.261 119.15 149.433C117.093 151.176 114.87 151.935 112.192 151.917C111.976 151.918 111.761 151.92 111.539 151.922C110.822 151.926 110.106 151.924 109.389 151.923C108.873 151.925 108.357 151.927 107.84 151.93C106.442 151.935 105.044 151.936 103.646 151.936C102.477 151.935 101.307 151.938 100.138 151.94C97.3777 151.945 94.6176 151.945 91.8572 151.944C89.015 151.942 86.1728 151.948 83.3308 151.957C80.8859 151.965 78.4411 151.967 75.9964 151.966C74.5383 151.966 73.0803 151.967 71.6222 151.973C70.25 151.979 68.8779 151.978 67.5057 151.973C67.0041 151.973 66.5025 151.974 66.001 151.977C62.4348 152.001 59.4111 151.738 56.5604 149.326C53.9502 146.696 52.9803 143.775 52.9924 140.174C53.0821 135.517 56.442 131.563 58.8627 127.755C59.926 126.081 60.9667 124.394 62.0039 122.703C63.7591 119.844 65.5321 116.997 67.3136 114.154C67.8168 113.35 68.3188 112.545 68.8206 111.741C68.99 111.469 69.1593 111.198 69.3337 110.918C69.6574 110.399 69.9808 109.88 70.3041 109.361C70.4505 109.127 70.5968 108.892 70.7475 108.651C70.8753 108.446 71.003 108.241 71.1347 108.03C71.5321 107.405 71.5321 107.405 72.0475 106.764C72.6747 105.652 72.6737 104.817 72.6664 103.562C72.6703 103.215 72.6703 103.215 72.6742 102.861C72.6815 102.1 72.6819 101.338 72.6822 100.577C72.686 100.047 72.6902 99.5182 72.6947 98.9888C72.7056 97.5982 72.7106 96.208 72.7144 94.8172C72.7193 93.3972 72.7297 91.9772 72.7397 90.5572C72.7585 87.7729 72.7711 84.9889 72.7797 82.2046C72.6095 82.1916 72.4394 82.1786 72.264 82.1654C72.0402 82.1459 71.8164 82.1267 71.5857 82.107C71.2533 82.0798 71.2533 82.0798 70.9141 82.0521C70.0059 81.9119 69.472 81.5578 68.7875 80.957C67.6191 79.3454 67.6561 77.647 67.7894 75.7172C68.0753 74.2134 68.5643 73.2009 69.7855 72.2241C70.5692 71.9628 71.1192 71.9419 71.9419 71.9394ZM83.0097 82.2046C83.0127 83.4441 83.0155 84.6837 83.0185 85.9607C83.0197 86.7614 83.0209 87.5618 83.0219 88.3623C83.0234 89.6241 83.0252 90.8859 83.0284 92.1474C83.0499 100.166 83.0499 100.166 82.9152 104.086C82.9074 104.335 82.8999 104.585 82.892 104.843C82.7126 109.236 82.7126 109.236 81.5887 110.892C81.453 111.097 81.3173 111.303 81.1775 111.515C81.0308 111.729 80.8841 111.942 80.7329 112.162C80.4193 112.636 80.1059 113.11 79.7933 113.585C79.5452 113.958 79.5452 113.958 79.292 114.34C78.4444 115.635 77.633 116.952 76.8235 118.272C76.5559 118.708 76.2872 119.142 76.0184 119.577C75.856 119.841 75.6936 120.105 75.5263 120.377C75.3088 120.73 75.3088 120.73 75.0868 121.091C74.7549 121.56 74.7549 121.56 74.7758 121.877C83.4214 121.877 92.067 121.877 100.975 121.877C100.598 120.934 100.255 120.223 99.7221 119.382C99.5714 119.142 99.4207 118.903 99.2652 118.657C99.0229 118.275 99.0229 118.275 98.7759 117.885C98.6103 117.62 98.4448 117.356 98.2742 117.083C97.4568 115.778 96.6304 114.481 95.7818 113.196C95.6343 112.968 95.4869 112.741 95.3351 112.507C95.0602 112.084 94.781 111.663 94.4968 111.246C92.4959 108.135 92.9069 104.16 92.8869 100.601C92.8822 100.069 92.8774 99.5365 92.8722 99.004C92.8595 97.613 92.8495 96.2222 92.8403 94.8311C92.8303 93.4077 92.8176 91.9842 92.8051 90.5607C92.7809 87.7754 92.7602 84.9899 92.7407 82.2046C89.5295 82.2046 86.3183 82.2046 83.0097 82.2046ZM84.1208 126.568C83.3605 127.668 83.0409 128.503 83.2592 129.861C83.6263 130.951 84.0731 131.691 84.928 132.466C86.1361 133.036 87.2385 133.321 88.5526 132.948C89.7386 132.42 90.4297 131.806 90.9941 130.61C91.3285 129.432 91.3681 128.442 90.8851 127.304C90.2516 126.216 89.4145 125.581 88.2495 125.121C86.6109 124.768 85.1925 125.321 84.1208 126.568ZM70.9395 135.164C69.9258 136.494 69.4486 137.69 69.5672 139.374C69.8542 141.295 70.6627 142.414 72.1335 143.656C73.4088 144.5 74.6973 144.702 76.2007 144.485C77.7874 144.075 78.9599 143.43 79.8841 142.03C80.6626 140.631 81.0298 139.44 80.7641 137.846C80.2187 136.017 79.0674 134.585 77.4425 133.604C75.0213 132.947 72.7027 133.266 70.9395 135.164ZM95.2358 135.101C94.4449 136.083 94.3543 136.853 94.4873 138.095C94.902 139.008 95.3613 139.593 96.2339 140.092C97.2087 140.395 97.6691 140.361 98.6512 140.045C99.6402 139.504 99.6402 139.504 100.226 138.594C100.491 137.573 100.545 137.028 100.164 136.037C99.5786 135.117 99.2705 134.7 98.23 134.353C96.9854 134.26 96.2214 134.307 95.2358 135.101Z" fill="white"/>
<path d="M77.271 43.7795C78.648 44.8168 79.0709 46.2263 79.6568 47.8029C79.8414 48.2985 80.0288 48.793 80.2192 49.2864C80.3003 49.5044 80.3811 49.7225 80.4645 49.9473C81.0326 51.0262 81.9311 51.3733 83.0342 51.7855C83.2752 51.8786 83.5163 51.9719 83.7645 52.0679C84.27 52.2606 84.7763 52.4509 85.2831 52.6393C85.5238 52.7331 85.7646 52.8269 86.0126 52.9238C86.3422 53.048 86.3422 53.048 86.6783 53.1748C87.4012 53.5982 87.6504 54.0036 88 54.7582C88.0157 55.6469 88.0157 55.6469 87.7505 56.5048C86.3567 57.6296 84.6895 58.1493 83.0297 58.7723C82.8136 58.8554 82.5978 58.9385 82.3752 59.0241C82.1796 59.0974 81.984 59.1708 81.7824 59.2464C80.7038 59.7706 80.3849 60.4451 79.9854 61.5494C79.8911 61.8027 79.7965 62.0557 79.6992 62.3167C79.5048 62.8496 79.3112 63.3831 79.1184 63.917C79.0238 64.17 78.929 64.4233 78.8314 64.684C78.7473 64.9158 78.6632 65.1476 78.5767 65.3862C78.2268 66.0683 77.9317 66.354 77.271 66.7348C76.3855 66.8296 75.7838 66.8805 74.9967 66.4384C74.402 65.8667 74.3041 65.4431 74.1111 64.6451C73.2894 61.5639 73.2894 61.5639 71.2887 59.199C69.6533 58.3357 67.9337 57.7423 66.1564 57.2416C65.5439 57.0038 65.5439 57.0038 65.0448 56.2553C64.911 54.85 64.911 54.85 65.0448 54.2592C65.7291 53.466 66.3567 53.06 67.3236 52.6723C67.6869 52.5253 67.6869 52.5253 68.0575 52.3751C68.3087 52.2763 68.5599 52.1775 68.8187 52.0759C69.0718 51.9734 69.325 51.8706 69.5858 51.765C71.4558 51.0155 71.4558 51.0155 72.0312 51.0155C72.0936 50.8209 72.156 50.6262 72.2203 50.4256C72.6171 49.2642 73.0515 48.1202 73.4971 46.9764C73.5817 46.7514 73.6662 46.5265 73.7534 46.2947C73.838 46.0787 73.9226 45.8627 74.0098 45.6402C74.085 45.4446 74.1602 45.2489 74.2377 45.0474C74.9459 43.7732 75.8803 43.5844 77.271 43.7795Z" fill="white"/>
<path d="M85.8949 24.0525C86.1778 24.0576 86.4608 24.0628 86.7524 24.0681C86.8518 24.3028 86.9513 24.5376 87.0536 24.7796C87.1871 25.0934 87.3206 25.4072 87.4543 25.7211C87.5195 25.8751 87.5846 26.0292 87.6517 26.1879C87.8473 26.6472 88.0484 27.1042 88.2495 27.5612C88.3426 27.8266 88.4354 28.0919 88.5312 28.3653C89.2279 29.3994 90.1234 29.6218 91.2749 30.0096C91.6863 30.1563 92.0975 30.3035 92.5087 30.4511C92.6909 30.5134 92.873 30.5758 93.0606 30.64C93.4893 30.8049 93.4893 30.8049 93.7388 31.0544C93.749 31.6365 93.7493 32.2189 93.7388 32.801C93.3281 32.9883 92.9177 33.1754 92.507 33.3624C92.2782 33.4666 92.0494 33.5708 91.8138 33.6782C90.9942 34.0486 90.9942 34.0486 90.4358 34.2292C89.5597 34.5399 88.9289 34.7758 88.4022 35.5667C88.128 36.1916 87.9 36.8152 87.6881 37.4638C86.9309 39.6917 86.9309 39.6917 86.1327 40.1197C85.5049 40.0369 85.5049 40.0369 84.9787 39.6723C84.3901 38.882 84.0395 38.0511 83.6959 37.1363C83.629 36.9665 83.5622 36.7966 83.4933 36.6217C83.0098 35.3736 83.0098 35.3736 83.0098 34.7971C82.8765 34.7547 82.7435 34.7122 82.6063 34.6684C81.5314 34.3188 80.4647 33.9497 79.4073 33.5495C79.2019 33.4724 78.9963 33.3952 78.7845 33.3156C78.269 33.0505 78.269 33.0505 77.77 32.302C77.7388 31.6938 77.7388 31.6938 78.0195 31.0544C78.638 30.6141 79.315 30.3423 80.0156 30.0564C80.2367 29.9628 80.4575 29.8692 80.6853 29.7727C82.4124 29.0583 82.4124 29.0583 83.0098 29.0583C83.0522 28.9252 83.0946 28.792 83.1385 28.6548C84.6281 24.0747 84.6281 24.0747 85.8949 24.0525Z" fill="white"/>
<path d="M101.567 35.6704C102.222 35.7951 102.222 35.7951 102.721 36.3409C103.066 36.9077 103.266 37.4352 103.472 38.07C103.959 39.7093 103.959 39.7093 105.024 40.9881C105.661 41.3039 106.29 41.5535 106.963 41.7834C109.083 42.6027 109.083 42.6027 109.645 43.4053C109.708 44.0291 109.708 44.0291 109.469 44.5164C108.603 45.3845 107.425 45.6518 106.276 46.0261C105.221 46.4138 104.638 46.723 104.118 47.7464C103.978 48.0847 103.845 48.4258 103.719 48.7698C103.621 49.0084 103.522 49.2472 103.421 49.493C103.265 49.9089 103.109 50.3246 102.953 50.7405C102.721 51.265 102.721 51.265 102.222 51.764C101.63 51.8888 101.63 51.8888 100.975 51.764C99.9392 50.6315 99.5644 49.19 99.0886 47.7532C98.4172 46.3901 97.0149 46.0491 95.6725 45.4949C94.0198 44.8091 94.0198 44.8091 93.7388 44.5281C93.661 43.8107 93.661 43.8107 93.7388 43.031C94.4252 42.355 95.2042 42.093 96.1049 41.7861C97.9269 41.2136 97.9269 41.2136 99.1502 39.8497C99.2698 39.4997 99.3783 39.1456 99.4776 38.7893C99.6505 38.3408 99.8274 37.8937 100.008 37.4482C100.086 37.2404 100.164 37.0326 100.244 36.8185C100.561 36.1009 100.791 35.8339 101.567 35.6704Z" fill="white"/>
</g>
<defs>
<clipPath id="clip0_88_192">
<rect width="70.1131" height="128" fill="white" transform="translate(52.9435 24)"/>
</clipPath>
</defs>
</svg>
